<?xml version="1.0" encoding="UTF-8"?>
<svg width="16px" height="16px" viewBox="0 0 16 16" version="1.1" xmlns="http://www.w3.org/2000/svg" xmlns:xlink="http://www.w3.org/1999/xlink">
    <!-- Generator: Sketch 42 (36781) - http://www.bohemiancoding.com/sketch -->
    <title>gear</title>
    <desc>Created with Sketch.</desc>
    <defs>
        <rect id="path-1" x="0" y="0" width="16" height="16"></rect>
    </defs>
    <g id="gear" mask="url(#mask-2)" fill-rule="nonzero">
        <path d="M8.03441778,5.08472889 C6.44494222,5.08472889 5.15584,6.37383111 5.15584,7.96444444 C5.15584,9.55278222 6.44494222,10.8452978 8.03441778,10.8452978 C9.62389333,10.8452978 10.9038933,9.55278222 10.9038933,7.96444444 C10.9038933,6.37383111 9.62389333,5.08472889 8.03441778,5.08472889 L8.03441778,5.08472889 Z M13.8063644,9.61877333 L13.2875378,10.8691911 L14.3354311,12.9274311 L13.0520178,14.2108444 L10.9459911,13.2164267 L9.69557333,13.7295644 L9.06069333,15.6717511 L8.97991111,15.9300267 L7.16629333,15.9300267 L6.38122667,13.7375289 L5.13080889,13.2221156 L3.07029333,14.2654578 L1.78801778,12.9831822 L2.78129778,10.8760178 L2.26588444,9.62673778 L0.0699733333,8.90993778 L0.0699733333,7.09745778 L2.26360889,6.31125333 L2.77902222,5.06311111 L1.85628444,3.24152889 L1.73454222,3.00259556 L3.01568,1.72145778 L5.12398222,2.71473778 L6.37212444,2.19818667 L7.00586667,0.257137778 L7.08778667,0 L8.90140444,0 L9.68647111,2.19477333 L10.9334756,2.71132444 L12.9962667,1.66570667 L14.2785422,2.94684444 L13.2852622,5.05173333 L13.7984,6.30215111 L15.9988622,7.01781333 L15.9988622,8.83029333 L13.8052267,9.61877333 L13.8063644,9.61877333 Z" id="Shape"></path>
    </g>
</svg>
