<?xml version="1.0" encoding="utf-8"?>
<!-- Generator: Adobe Illustrator 19.1.0, SVG Export Plug-In . SVG Version: 6.00 Build 0)  -->
<!DOCTYPE svg PUBLIC "-//W3C//DTD SVG 1.1//EN" "http://www.w3.org/Graphics/SVG/1.1/DTD/svg11.dtd">
<svg version="1.1" id="Layer_1" xmlns="http://www.w3.org/2000/svg" xmlns:xlink="http://www.w3.org/1999/xlink" x="0px" y="0px"
	 width="16px" height="16px" viewBox="-6 8 16 16" style="enable-background:new -6 8 16 16;" xml:space="preserve">
<style type="text/css">
	.st0{fill:#444444;}
</style>
<path class="st0" d="M0,21h10v2H0V21z M0,15h10v2H0V15z M0,9h10v2H0V9z M-3,20v4h-1v-3h-1v-1H-3z M-4,17.2V18h2v1h-3v-2.3l2-0.9V15
	h-2v-1h3v2.3L-4,17.2z M-2,8v5h-3v-1h2v-1h-2v-1h2V9h-2V8H-2z"/>
</svg>
